<?xml version="1.0" encoding="utf-8"?>
<!-- Generator: Adobe Illustrator 21.0.2, SVG Export Plug-In . SVG Version: 6.00 Build 0)  -->
<svg version="1.1" id="Capa_1" xmlns="http://www.w3.org/2000/svg" xmlns:xlink="http://www.w3.org/1999/xlink" x="0px" y="0px"
	 viewBox="0 0 679.4 500" style="enable-background:new 0 0 679.4 500;" xml:space="preserve">
<style type="text/css">
	.st0{fill:none;stroke:#CCCCCC;}
	.st1{fill:#EEEEEE;stroke:#999999;}
	.st2{font-family:'ArialMT';}
	.st3{font-size:11px;}
</style>
<g transform="translate(40,0)">
	<path class="st0" d="M0,214.1c120,0,30-187.3,190-187.3"/>
	<path class="st0" d="M0,214.1C120,214.1,30,92,190,92"/>
	<path class="st0" d="M0,214.1c120,0,30-56.9,190-56.9"/>
	<path class="st0" d="M0,214.1c120,0,30,97.1,190,97.1"/>
	<path class="st0" d="M0,214.1c120,0,30,259.2,190,259.2"/>
	<path class="st0" d="M190,26.7c80,0-10,0,190,0"/>
	<path class="st0" d="M380,26.7c140,0-70,0,70,0"/>
	<path class="st0" d="M190,92c80,0-10-21.7,190-21.7"/>
	<path class="st0" d="M190,92c80,0-10,21.7,190,21.7"/>
	<path class="st0" d="M380,70.2c140,0-70,0,70,0"/>
	<path class="st0" d="M380,113.7c140,0-70,0,70,0"/>
	<path class="st0" d="M190,157.2c80,0-10,0,190,0"/>
	<path class="st0" d="M380,157.2c140,0-70,0,70,0"/>
	<path class="st0" d="M190,311.2c80,0-10-110.5,190-110.5"/>
	<path class="st0" d="M190,311.2c80,0-10-67,190-67"/>
	<path class="st0" d="M190,311.2c80,0-10-23.6,190-23.6"/>
	<path class="st0" d="M190,311.2c80,0-10,19.9,190,19.9"/>
	<path class="st0" d="M190,311.2c80,0-10,63.4,190,63.4"/>
	<path class="st0" d="M190,311.2c80,0-10,117.8,190,117.8"/>
	<path class="st0" d="M380,200.7c140,0-70,0,70,0"/>
	<path class="st0" d="M380,244.1c140,0-70,0,70,0"/>
	<path class="st0" d="M380,287.6c140,0-70,0,70,0"/>
	<path class="st0" d="M380,331.1c140,0-70,0,70,0"/>
	<path class="st0" d="M380,374.6c140,0-70,0,70,0"/>
	<path class="st0" d="M380,428.9c41,0,37.3-10.9,70-10.9"/>
	<path class="st0" d="M380,428.9c34.5,0,35,10.9,70,10.9"/>
	<path class="st0" d="M190,473.3c80,0-10,0,190,0"/>
	<path class="st0" d="M380,473.3c140,0-70,0,70,0"/>
	<g transform="translate(0,209.05797101449278)">
		<circle class="st1" cx="0" cy="5" r="4.5"/>
	</g>
	<g transform="translate(280.00000000000006,21.73913043478261)">
		<circle class="st1" cx="-90" cy="5" r="4.5"/>
		<text transform="matrix(1 0 0 1 -153.4199 8.0004)" class="st2 st3">Atacama</text>
	</g>
	<g transform="translate(560.0000000000001,21.73913043478261)">
		<circle class="st1" cx="-180" cy="5" r="4.5"/>
		<text transform="matrix(1 0 0 1 -230.9946 8.0004)" class="st2 st3">Copiado</text>
	</g>
	<g transform="translate(840,21.73913043478261)">
		<circle class="st1" cx="-390" cy="5" r="4.5"/>
		<text transform="matrix(1 0 0 1 -382.0381 8.0004)" class="st2 st3">Observatorio Inca de Oro</text>
	</g>
	<g transform="translate(280.00000000000006,86.95652173913044)">
		<circle class="st1" cx="-90" cy="5" r="4.5"/>
		<text transform="matrix(1 0 0 1 -168.7222 8.0004)" class="st2 st3">Antofagasta</text>
	</g>
	<g transform="translate(560.0000000000001,65.21739130434783)">
		<circle class="st1" cx="-180" cy="5" r="4.5"/>
		<text transform="matrix(1 0 0 1 -241.9946 8.0004)" class="st2 st3">Chiu Chau</text>
	</g>
	<g transform="translate(840,65.21739130434783)">
		<circle class="st1" cx="-390" cy="5" r="4.5"/>
		<text transform="matrix(1 0 0 1 -382.0381 8.0004)" class="st2 st3">Observatorio Paniri Caer</text>
	</g>
	<g transform="translate(560.0000000000001,108.69565217391305)">
		<circle class="st1" cx="-180" cy="5" r="4.5"/>
		<text transform="matrix(1 0 0 1 -303.1499 8.0004)" class="st2 st3">San Pedro de Atacama</text>
	</g>
	<g transform="translate(840,108.69565217391305)">
		<circle class="st1" cx="-390" cy="5" r="4.5"/>
		<text transform="matrix(1 0 0 1 -382.0381 8.0004)" class="st2 st3">Observatorio Alarkapin</text>
	</g>
	<g transform="translate(280.00000000000006,152.17391304347828)">
		<circle class="st1" cx="-90" cy="5" r="4.5"/>
		<text transform="matrix(1 0 0 1 -161.7827 8.0004)" class="st2 st3">Valparaíso</text>
		<text transform="matrix(1 0 0 1 -293.6433 53.7171)" class="st2 st3">Chile</text>
	</g>
	<g transform="translate(560.0000000000001,152.17391304347828)">
		<circle class="st1" cx="-180" cy="5" r="4.5"/>
		<text transform="matrix(1 0 0 1 -288.8896 8.0004)" class="st2 st3">Valle del Aconcagua</text>
	</g>
	<g transform="translate(840,152.17391304347828)">
		<circle class="st1" cx="-390" cy="5" r="4.5"/>
		<text transform="matrix(1 0 0 1 -382.0381 8.0004)" class="st2 st3">Observatorio Astronómico Yepún</text>
	</g>
	<g transform="translate(280.00000000000006,306.1594202898551)">
		<circle class="st1" cx="-90" cy="5" r="4.5"/>
		<text transform="matrix(1 0 0 1 -160.1499 8.0005)" class="st2 st3">Coquimbo</text>
	</g>
	<g transform="translate(560.0000000000001,195.6521739130435)">
		<circle class="st1" cx="-180" cy="5" r="4.5"/>
		<text transform="matrix(1 0 0 1 -241.9946 8.0004)" class="st2 st3">Cochiguaz</text>
	</g>
	<g transform="translate(840,195.6521739130435)">
		<circle class="st1" cx="-390" cy="5" r="4.5"/>
		<text transform="matrix(1 0 0 1 -382.0381 8.0004)" class="st2 st3">Observatorio Cancana</text>
	</g>
	<g transform="translate(560.0000000000001,239.13043478260872)">
		<circle class="st1" cx="-180" cy="5" r="4.5"/>
		<text transform="matrix(1 0 0 1 -240.7808 8.0004)" class="st2 st3">La Serena</text>
	</g>
	<g transform="translate(840,239.13043478260872)">
		<circle class="st1" cx="-390" cy="5" r="4.5"/>
		<text transform="matrix(1 0 0 1 -382.0381 8.0004)" class="st2 st3">Observatorio Cerro Mayo</text>
	</g>
	<g transform="translate(560.0000000000001,282.6086956521739)">
		<circle class="st1" cx="-180" cy="5" r="4.5"/>
		<text transform="matrix(1 0 0 1 -244.4331 8.0005)" class="st2 st3">Pisco Elqui</text>
	</g>
	<g transform="translate(840,282.6086956521739)">
		<circle class="st1" cx="-390" cy="5" r="4.5"/>
		<text transform="matrix(1 0 0 1 -382.0381 8.0005)" class="st2 st3">Observatorio Cielo Sur</text>
	</g>
	<g transform="translate(560.0000000000001,326.0869565217391)">
		<circle class="st1" cx="-180" cy="5" r="4.5"/>
		<text transform="matrix(1 0 0 1 -238.3315 8.0005)" class="st2 st3">Andacollo</text>
	</g>
	<g transform="translate(840,326.0869565217391)">
		<circle class="st1" cx="-390" cy="5" r="4.5"/>
		<text transform="matrix(1 0 0 1 -382.0381 8.0005)" class="st2 st3">Observatorio Collowara</text>
	</g>
	<g transform="translate(560.0000000000001,369.5652173913043)">
		<circle class="st1" cx="-180" cy="5" r="4.5"/>
		<text transform="matrix(1 0 0 1 -249.9385 8.0005)" class="st2 st3">Combarbalá</text>
	</g>
	<g transform="translate(840,369.5652173913043)">
		<circle class="st1" cx="-390" cy="5" r="4.5"/>
		<text transform="matrix(1 0 0 1 -382.0381 8.0005)" class="st2 st3">Observatorio Cruz del Sur</text>
	</g>
	<g transform="translate(560.0000000000001,423.9130434782609)">
		<circle class="st1" cx="-180" cy="5" r="4.5"/>
		<text transform="matrix(1 0 0 1 -223.4536 8.0006)" class="st2 st3">Vicuña</text>
	</g>
	<g transform="translate(840,413.04347826086956)">
		<circle class="st1" cx="-390" cy="5" r="4.5"/>
		<text transform="matrix(1 0 0 1 -382.0381 8.0005)" class="st2 st3">Observatorio Mamalluca</text>
	</g>
	<g transform="translate(840,434.7826086956522)">
		<circle class="st1" cx="-390" cy="5" r="4.5"/>
		<text transform="matrix(1 0 0 1 -382.0381 8.0005)" class="st2 st3">Observatorio del Pangue</text>
	</g>
	<g transform="translate(280.00000000000006,478.26086956521743)">
		<circle class="st1" cx="-90" cy="-5" r="4.5"/>
		<text transform="matrix(1 0 0 1 -146.6953 -2.0005)" class="st2 st3">Bío-Bío</text>
	</g>
	<g transform="translate(560.0000000000001,478.26086956521743)">
		<circle class="st1" cx="-180" cy="-5" r="4.5"/>
		<text transform="matrix(1 0 0 1 -225.4893 -2.0005)" class="st2 st3">Cañete</text>
	</g>
	<g transform="translate(840,478.26086956521743)">
		<circle class="st1" cx="-390" cy="-5" r="4.5"/>
		<text transform="matrix(1 0 0 1 -382.0381 -2.0005)" class="st2 st3">Observatorio Collowara</text>
	</g>
</g>
</svg>
