<svg width="800" height="600" xmlns="http://www.w3.org/2000/svg" version="1.1"><g transform="translate(50,0)"><text x="-50" y="23" style="font-size: 10px; font-family: Arial,Helvetica;">Combarbalá</text><g class="y axis" style="font-size: 10px; font-family: Arial,Helvetica;" transform="translate(0,30)"><g class="tick" style="opacity: 1;" transform="translate(0,550)"><line x2="-6" y2="0" style="shape-rendering: crispedges; fill: none; stroke: rgb(204, 204, 204);"></line><text dy=".32em" style="text-anchor: end;" x="-9" y="0">0.0</text></g><g class="tick" style="opacity: 1;" transform="translate(0,531.6666666666666)"><line x2="-6" y2="0" style="shape-rendering: crispedges; fill: none; stroke: rgb(204, 204, 204);"></line><text dy=".32em" style="text-anchor: end;" x="-9" y="0">0.1</text></g><g class="tick" style="opacity: 1;" transform="translate(0,513.3333333333334)"><line x2="-6" y2="0" style="shape-rendering: crispedges; fill: none; stroke: rgb(204, 204, 204);"></line><text dy=".32em" style="text-anchor: end;" x="-9" y="0">0.2</text></g><g class="tick" style="opacity: 1;" transform="translate(0,495)"><line x2="-6" y2="0" style="shape-rendering: crispedges; fill: none; stroke: rgb(204, 204, 204);"></line><text dy=".32em" style="text-anchor: end;" x="-9" y="0">0.3</text></g><g class="tick" style="opacity: 1;" transform="translate(0,476.6666666666667)"><line x2="-6" y2="0" style="shape-rendering: crispedges; fill: none; stroke: rgb(204, 204, 204);"></line><text dy=".32em" style="text-anchor: end;" x="-9" y="0">0.4</text></g><g class="tick" style="opacity: 1;" transform="translate(0,458.33333333333337)"><line x2="-6" y2="0" style="shape-rendering: crispedges; fill: none; stroke: rgb(204, 204, 204);"></line><text dy=".32em" style="text-anchor: end;" x="-9" y="0">0.5</text></g><g class="tick" style="opacity: 1;" transform="translate(0,440)"><line x2="-6" y2="0" style="shape-rendering: crispedges; fill: none; stroke: rgb(204, 204, 204);"></line><text dy=".32em" style="text-anchor: end;" x="-9" y="0">0.6</text></g><g class="tick" style="opacity: 1;" transform="translate(0,421.6666666666667)"><line x2="-6" y2="0" style="shape-rendering: crispedges; fill: none; stroke: rgb(204, 204, 204);"></line><text dy=".32em" style="text-anchor: end;" x="-9" y="0">0.7</text></g><g class="tick" style="opacity: 1;" transform="translate(0,403.33333333333337)"><line x2="-6" y2="0" style="shape-rendering: crispedges; fill: none; stroke: rgb(204, 204, 204);"></line><text dy=".32em" style="text-anchor: end;" x="-9" y="0">0.8</text></g><g class="tick" style="opacity: 1;" transform="translate(0,385)"><line x2="-6" y2="0" style="shape-rendering: crispedges; fill: none; stroke: rgb(204, 204, 204);"></line><text dy=".32em" style="text-anchor: end;" x="-9" y="0">0.9</text></g><g class="tick" style="opacity: 1;" transform="translate(0,366.6666666666667)"><line x2="-6" y2="0" style="shape-rendering: crispedges; fill: none; stroke: rgb(204, 204, 204);"></line><text dy=".32em" style="text-anchor: end;" x="-9" y="0">1.0</text></g><g class="tick" style="opacity: 1;" transform="translate(0,348.3333333333333)"><line x2="-6" y2="0" style="shape-rendering: crispedges; fill: none; stroke: rgb(204, 204, 204);"></line><text dy=".32em" style="text-anchor: end;" x="-9" y="0">1.1</text></g><g class="tick" style="opacity: 1;" transform="translate(0,330.00000000000006)"><line x2="-6" y2="0" style="shape-rendering: crispedges; fill: none; stroke: rgb(204, 204, 204);"></line><text dy=".32em" style="text-anchor: end;" x="-9" y="0">1.2</text></g><g class="tick" style="opacity: 1;" transform="translate(0,311.6666666666667)"><line x2="-6" y2="0" style="shape-rendering: crispedges; fill: none; stroke: rgb(204, 204, 204);"></line><text dy=".32em" style="text-anchor: end;" x="-9" y="0">1.3</text></g><g class="tick" style="opacity: 1;" transform="translate(0,293.33333333333337)"><line x2="-6" y2="0" style="shape-rendering: crispedges; fill: none; stroke: rgb(204, 204, 204);"></line><text dy=".32em" style="text-anchor: end;" x="-9" y="0">1.4</text></g><g class="tick" style="opacity: 1;" transform="translate(0,275)"><line x2="-6" y2="0" style="shape-rendering: crispedges; fill: none; stroke: rgb(204, 204, 204);"></line><text dy=".32em" style="text-anchor: end;" x="-9" y="0">1.5</text></g><g class="tick" style="opacity: 1;" transform="translate(0,256.6666666666667)"><line x2="-6" y2="0" style="shape-rendering: crispedges; fill: none; stroke: rgb(204, 204, 204);"></line><text dy=".32em" style="text-anchor: end;" x="-9" y="0">1.6</text></g><g class="tick" style="opacity: 1;" transform="translate(0,238.33333333333334)"><line x2="-6" y2="0" style="shape-rendering: crispedges; fill: none; stroke: rgb(204, 204, 204);"></line><text dy=".32em" style="text-anchor: end;" x="-9" y="0">1.7</text></g><g class="tick" style="opacity: 1;" transform="translate(0,220)"><line x2="-6" y2="0" style="shape-rendering: crispedges; fill: none; stroke: rgb(204, 204, 204);"></line><text dy=".32em" style="text-anchor: end;" x="-9" y="0">1.8</text></g><g class="tick" style="opacity: 1;" transform="translate(0,201.66666666666669)"><line x2="-6" y2="0" style="shape-rendering: crispedges; fill: none; stroke: rgb(204, 204, 204);"></line><text dy=".32em" style="text-anchor: end;" x="-9" y="0">1.9</text></g><g class="tick" style="opacity: 1;" transform="translate(0,183.33333333333334)"><line x2="-6" y2="0" style="shape-rendering: crispedges; fill: none; stroke: rgb(204, 204, 204);"></line><text dy=".32em" style="text-anchor: end;" x="-9" y="0">2.0</text></g><g class="tick" style="opacity: 1;" transform="translate(0,164.99999999999997)"><line x2="-6" y2="0" style="shape-rendering: crispedges; fill: none; stroke: rgb(204, 204, 204);"></line><text dy=".32em" style="text-anchor: end;" x="-9" y="0">2.1</text></g><g class="tick" style="opacity: 1;" transform="translate(0,146.66666666666663)"><line x2="-6" y2="0" style="shape-rendering: crispedges; fill: none; stroke: rgb(204, 204, 204);"></line><text dy=".32em" style="text-anchor: end;" x="-9" y="0">2.2</text></g><g class="tick" style="opacity: 1;" transform="translate(0,128.33333333333337)"><line x2="-6" y2="0" style="shape-rendering: crispedges; fill: none; stroke: rgb(204, 204, 204);"></line><text dy=".32em" style="text-anchor: end;" x="-9" y="0">2.3</text></g><g class="tick" style="opacity: 1;" transform="translate(0,110.00000000000004)"><line x2="-6" y2="0" style="shape-rendering: crispedges; fill: none; stroke: rgb(204, 204, 204);"></line><text dy=".32em" style="text-anchor: end;" x="-9" y="0">2.4</text></g><g class="tick" style="opacity: 1;" transform="translate(0,91.66666666666664)"><line x2="-6" y2="0" style="shape-rendering: crispedges; fill: none; stroke: rgb(204, 204, 204);"></line><text dy=".32em" style="text-anchor: end;" x="-9" y="0">2.5</text></g><g class="tick" style="opacity: 1;" transform="translate(0,73.33333333333331)"><line x2="-6" y2="0" style="shape-rendering: crispedges; fill: none; stroke: rgb(204, 204, 204);"></line><text dy=".32em" style="text-anchor: end;" x="-9" y="0">2.6</text></g><g class="tick" style="opacity: 1;" transform="translate(0,54.999999999999986)"><line x2="-6" y2="0" style="shape-rendering: crispedges; fill: none; stroke: rgb(204, 204, 204);"></line><text dy=".32em" style="text-anchor: end;" x="-9" y="0">2.7</text></g><g class="tick" style="opacity: 1;" transform="translate(0,36.66666666666672)"><line x2="-6" y2="0" style="shape-rendering: crispedges; fill: none; stroke: rgb(204, 204, 204);"></line><text dy=".32em" style="text-anchor: end;" x="-9" y="0">2.8</text></g><g class="tick" style="opacity: 1;" transform="translate(0,18.33333333333333)"><line x2="-6" y2="0" style="shape-rendering: crispedges; fill: none; stroke: rgb(204, 204, 204);"></line><text dy=".32em" style="text-anchor: end;" x="-9" y="0">2.9</text></g><g class="tick" style="opacity: 1;" transform="translate(0,0)"><line x2="-6" y2="0" style="shape-rendering: crispedges; fill: none; stroke: rgb(204, 204, 204);"></line><text dy=".32em" style="text-anchor: end;" x="-9" y="0">3.0</text></g><path class="domain" d="M-6,0H0V550H-6" style="shape-rendering: crispedges; fill: none; stroke: rgb(204, 204, 204);"></path></g><rect transform="translate(0,30)" class="bar" x="1" width="232" y="0" height="550" style="fill: rgb(191, 105, 105);"></rect><rect transform="translate(0,30)" class="bar" x="259" width="232" y="366.6666666666667" height="183.33333333333331" style="fill: rgb(105, 191, 105);"></rect><rect transform="translate(0,30)" class="bar" x="517" width="232" y="183.33333333333334" height="366.66666666666663" style="fill: rgb(105, 105, 191);"></rect></g><g class="x axis" style="font-size: 10px; font-family: Arial,Helvetica;" transform="translate(50,580)"><g class="tick" style="opacity: 1;" transform="translate(117,0)"><line y2="6" x2="0" style="shape-rendering: crispedges; fill: none; stroke: rgb(204, 204, 204);"></line><text dy=".71em" style="text-anchor: middle;" y="9" x="0"> Alojamiento</text></g><g class="tick" style="opacity: 1;" transform="translate(375,0)"><line y2="6" x2="0" style="shape-rendering: crispedges; fill: none; stroke: rgb(204, 204, 204);"></line><text dy=".71em" style="text-anchor: middle;" y="9" x="0">Qué Hacer</text></g><g class="tick" style="opacity: 1;" transform="translate(633,0)"><line y2="6" x2="0" style="shape-rendering: crispedges; fill: none; stroke: rgb(204, 204, 204);"></line><text dy=".71em" style="text-anchor: middle;" y="9" x="0">Restaurantes</text></g><path class="domain" d="M0,6V0H750V6" style="shape-rendering: crispedges; fill: none; stroke: rgb(204, 204, 204);"></path></g></svg>